# xmcd
#
# Track frame offsets:
#	150
#	8707
#	18162
#	26465
#	34550
#	43070
#	51794
#	60510
#	69193
#	78757
#	87569
#	97341
#	107346
#	116785
#	128107
#	136962
#	144677
#	156242
#	168547
#	178272
#	189088
#	198270
#	207595
#	217739
#	228093
#	237828
#	246205
#	256480
#
# Disc length: 3550 seconds
#
# Revision: 0
# Processed by: cddbd v1.5.2PL0 Copyright (c) Steve Scherf et al.
# Submitted via: EasyCDDAExtractor 10.0.2.1
#
DISCID=790ddc1c
DTITLE=Johnny Cash - The Man In Black - 1959-62 - CD2
DYEAR=1991
DGENRE=Country
TTITLE0=I'll Remember You
TTITLE1=I Got Stripes
TTITLE2=You Dreamer You
TTITLE3=Five Feet High And Rising
TTITLE4=The Rebel Johnny Yuma
TTITLE5=Lorena
TTITLE6=Second Honeymoon
TTITLE7=The Fable Of Willie Brown
TTITLE8=Smiling Bill McCall
TTITLE9=Johnny Yuma Theme
TTITLE10=The Man On The Hill
TTITLE11=Hank And Joe And Me
TTITLE12=The Caretaker
TTITLE13=Clementine
TTITLE14=I Want To Go Home
TTITLE15=Old Apache Squaw
TTITLE16=Don't Step On Mother's Roses
TTITLE17=My Grandfather's Clock
TTITLE18=I Couldn't Keep From Crying
TTITLE19=My Shoes Keep Walking Back To You
TTITLE20=I Will Miss You When You Go
TTITLE21=I Feel Better All Over
TTITLE22=Bandana
TTITLE23=Wabash Blues
TTITLE24=Viel Zu Spät
TTITLE25=Wo Ist Zuhause, Mama
TTITLE26=Heartbeat  (vocal Roy Rivers)
TTITLE27=Hello Again  (vocal Roy Rivers)
EXTD=
EXTT0=
EXTT1=
EXTT2=
EXTT3=
EXTT4=
EXTT5=
EXTT6=
EXTT7=
EXTT8=
EXTT9=
EXTT10=
EXTT11=
EXTT12=
EXTT13=
EXTT14=
EXTT15=
EXTT16=
EXTT17=
EXTT18=
EXTT19=
EXTT20=
EXTT21=
EXTT22=
EXTT23=
EXTT24=
EXTT25=
EXTT26=
EXTT27=
PLAYORDER=
